<svg xmlns="http://www.w3.org/2000/svg" width="256" height="256" viewBox="0 0 256 256">
  <defs>
    <style>
      .cls-1 {
        fill: #fff;
        fill-rule: evenodd;
      }
    </style>
  </defs>
  <path id="sk" class="cls-1" d="M85.749,56.434H83.125a9.574,9.574,0,0,1-2.158,2.708,6.515,6.515,0,0,1-4.02.931,34.233,34.233,0,0,1-5.586-.677q-1.44-.337-3.555-0.889a30.28,30.28,0,0,0-3.385-.719,47.159,47.159,0,0,0-9.9-1.016A35.3,35.3,0,0,0,34.8,62.4a38.7,38.7,0,0,0-13.33,14.515,38.2,38.2,0,0,0-4.7,18.027A31.6,31.6,0,0,0,18,103.872a28.38,28.38,0,0,0,4.189,8.379,50.377,50.377,0,0,0,8.252,8.76,119.059,119.059,0,0,0,12.822,9.479q14.3,9.141,19.466,12.823a31.247,31.247,0,0,1,7.744,7.447,15.266,15.266,0,0,1,2.581,8.845,16.221,16.221,0,0,1-6.136,12.78q-6.137,5.248-15.531,5.247a31.982,31.982,0,0,1-25.094-12.695,35.4,35.4,0,0,1-6.9-16.673h-3.3l-0.762,35.208h2.962q1.777-4.146,5.755-4.147a18.677,18.677,0,0,1,3.682.423q2.073,0.425,3.428.762a78.692,78.692,0,0,0,21.328,3.47A51.774,51.774,0,0,0,69.118,181.4a39.868,39.868,0,0,0,13.2-7.278,32.069,32.069,0,0,0,11.553-25.264,31.775,31.775,0,0,0-3.555-15.15,42.936,42.936,0,0,0-10.326-12.441,151.723,151.723,0,0,0-17.435-12.441q-1.863-1.439-10.41-6.771a58.964,58.964,0,0,1-11.341-8.972q-3.725-4.062-4.7-6.856a17.108,17.108,0,0,1-.973-5.671,15.894,15.894,0,0,1,2.5-8.844A16.45,16.45,0,0,1,44.4,65.787a21.332,21.332,0,0,1,9.437-2.074A25.527,25.527,0,0,1,71.7,70.441Q79.063,77.17,82.448,88.85h3.3V56.434Zm86.243,3.978q14.219,0,14.219,7.448,0,4.148-5.5,10.579l-36.9,38.848V76.578q0-7.278,2.835-11.722t12.568-4.443V57.958H100.645v2.285q8.886,0,12.145,3.936t3.258,12.4V164.09q0,7.281-2.793,11.68t-12.61,4.4v2.455h58.567v-2.455q-8.041,0-11.722-3.681t-3.681-12.4V121.434h0.507l38.594,47.481q3.47,4.233,3.47,6.6a3.4,3.4,0,0,1-2.116,3.343,16.772,16.772,0,0,1-5.162,1.312v2.455h57.89v-2.455q-9.225-.591-19.889-13.457l-51.458-62.63,22.513-23.19a90.524,90.524,0,0,1,16.884-13.8,41.142,41.142,0,0,1,19.509-6.686V57.958H171.992v2.454Z"/>
</svg>
