<svg xmlns="http://www.w3.org/2000/svg" width="256" height="256"><path d="M85.749 56.434h-2.624a9.574 9.574 0 01-2.158 2.708 6.515 6.515 0 01-4.02.931 34.233 34.233 0 01-5.586-.677q-1.44-.337-3.555-.889a30.28 30.28 0 00-3.385-.719 47.159 47.159 0 00-9.9-1.016A35.3 35.3 0 0034.8 62.4a38.7 38.7 0 00-13.33 14.515 38.2 38.2 0 00-4.7 18.027 31.6 31.6 0 001.23 8.93 28.38 28.38 0 004.189 8.379 50.377 50.377 0 008.252 8.76 119.059 119.059 0 0012.822 9.479q14.3 9.141 19.466 12.823a31.247 31.247 0 017.744 7.447 15.266 15.266 0 012.581 8.845 16.221 16.221 0 01-6.136 12.78q-6.137 5.248-15.531 5.247a31.982 31.982 0 01-25.094-12.695 35.4 35.4 0 01-6.9-16.673h-3.3l-.762 35.208h2.962q1.777-4.146 5.755-4.147a18.677 18.677 0 013.682.423q2.073.425 3.428.762a78.692 78.692 0 0021.328 3.47 51.774 51.774 0 0016.632-2.58 39.868 39.868 0 0013.2-7.278 32.069 32.069 0 0011.553-25.264 31.775 31.775 0 00-3.555-15.15 42.936 42.936 0 00-10.326-12.441 151.723 151.723 0 00-17.435-12.441q-1.863-1.439-10.41-6.771a58.964 58.964 0 01-11.341-8.972q-3.725-4.062-4.7-6.856a17.108 17.108 0 01-.973-5.671 15.894 15.894 0 012.5-8.844 16.45 16.45 0 016.769-5.925 21.332 21.332 0 019.437-2.074A25.527 25.527 0 0171.7 70.441q7.363 6.729 10.748 18.409h3.3V56.434zm86.243 3.978q14.219 0 14.219 7.448 0 4.148-5.5 10.579l-36.9 38.848V76.578q0-7.278 2.835-11.722t12.568-4.443v-2.455h-58.569v2.285q8.886 0 12.145 3.936t3.258 12.4v87.511q0 7.281-2.793 11.68t-12.61 4.4v2.455h58.567v-2.455q-8.041 0-11.722-3.681t-3.681-12.4v-42.655h.507l38.594 47.481q3.47 4.233 3.47 6.6a3.4 3.4 0 01-2.116 3.343 16.772 16.772 0 01-5.162 1.312v2.455h57.89v-2.455q-9.225-.591-19.889-13.457l-51.458-62.63 22.513-23.19a90.524 90.524 0 0116.884-13.8 41.142 41.142 0 0119.509-6.686v-2.449h-52.559v2.454z" fill="#fff" fill-rule="evenodd"/></svg>